<?xml version="1.0" encoding="UTF-8" standalone="no"?>
<svg
   xmlns:dc="http://purl.org/dc/elements/1.1/"
   xmlns:cc="http://creativecommons.org/ns#"
   xmlns:rdf="http://www.w3.org/1999/02/22-rdf-syntax-ns#"
   xmlns:svg="http://www.w3.org/2000/svg"
   xmlns="http://www.w3.org/2000/svg"
   xmlns:sodipodi="http://sodipodi.sourceforge.net/DTD/sodipodi-0.dtd"
   xmlns:inkscape="http://www.inkscape.org/namespaces/inkscape"
   version="1.1"
   id="svg10"
   xml:space="preserve"
   width="97.077194"
   height="103.23013"
   viewBox="0 0 97.077195 103.23013"
   sodipodi:docname="SDiOrb_newColors_50p.svg"
   inkscape:export-filename="C:\Users\mmatlock.SDI\Pictures\SDiLogo\SDiLogo_newColors2_50p.png"
   inkscape:export-xdpi="96"
   inkscape:export-ydpi="96"
   inkscape:version="1.0.1 (3bc2e813f5, 2020-09-07)"><metadata
     id="metadata16"><rdf:RDF><cc:Work
         rdf:about=""><dc:format>image/svg+xml</dc:format><dc:type
           rdf:resource="http://purl.org/dc/dcmitype/StillImage" /><dc:title></dc:title></cc:Work></rdf:RDF></metadata><defs
     id="defs14"><rect
       x="176.99834"
       y="507.479"
       width="249.00002"
       height="169.5"
       id="rect949" /><radialGradient
       fx="241.76172"
       fy="462.64551"
       cx="241.76172"
       cy="462.64551"
       r="143.83398"
       gradientUnits="userSpaceOnUse"
       spreadMethod="pad"
       id="radialGradient36"
       gradientTransform="matrix(0.5,0,0,0.5,143.4657,208.6532)"><stop
         style="stop-opacity:1;stop-color:#ffffff"
         offset="0"
         id="stop20" /><stop
         style="stop-opacity:1;stop-color:#1eb6ff"
         offset="0.17786951"
         id="stop22" /><stop
         style="stop-color:#045390;stop-opacity:1"
         offset="0.71514243"
         id="stop2187" /><stop
         style="stop-opacity:1;stop-color:#040853"
         offset="1"
         id="stop34" /></radialGradient></defs><sodipodi:namedview
     pagecolor="#ffffff"
     bordercolor="#666666"
     borderopacity="1"
     objecttolerance="10"
     gridtolerance="10"
     guidetolerance="10"
     inkscape:pageopacity="0"
     inkscape:pageshadow="2"
     inkscape:window-width="958"
     inkscape:window-height="1138"
     id="namedview12"
     showgrid="true"
     inkscape:zoom="1"
     inkscape:cx="116.01591"
     inkscape:cy="44.592255"
     inkscape:window-x="-7"
     inkscape:window-y="30"
     inkscape:window-maximized="0"
     inkscape:current-layer="g18"
     inkscape:snap-page="true"
     inkscape:document-rotation="0" /><g
     id="g18"
     inkscape:groupmode="layer"
     inkscape:label="SDi Logo"
     transform="matrix(1.3333333,0,0,-1.3333333,-334.03659,608.02358)"><path
       d="m 323.33535,417.307 c 0,-21.3794 -16.29885,-38.7119 -36.40335,-38.7119 -20.1057,0 -36.40455,17.3325 -36.40455,38.7119 0,21.37915 16.29885,38.7107 36.40455,38.7107 20.1045,0 36.40335,-17.33155 36.40335,-38.7107 z"
       style="fill:url(#radialGradient36);fill-opacity:1;fill-rule:nonzero;stroke:none;stroke-width:0.5"
       id="path38" /><path
       d="m 273.76965,427.6356 c -0.13625,1.22 -0.31105,2.344 -0.51295,3.3545 -0.20215,1.01 -0.44725,1.79715 -0.7534,2.42385 -0.30785,0.62595 -0.69285,1.06055 -1.1858,1.374 -0.49265,0.3103 -1.10935,0.4419 -1.8518,0.3953 -1.1133,-0.0732 -2.1238,-0.40065 -2.9424,-1.0894 -0.82275,-0.686 -1.3335,-1.89255 -1.582,-3.6667 -0.19535,-1.417 -0.1348,-2.5723 0.14695,-3.44875 0.28665,-0.87745 0.6958,-1.67335 1.29515,-2.3938 0.5984,-0.7212 1.33375,-1.449 2.2439,-2.18335 0.90945,-0.73365 1.8394,-1.6721 2.7681,-2.8159 0.92945,-1.14115 1.7832,-2.59915 2.5505,-4.31105 0.77125,-1.7046 1.2725,-3.87475 1.59695,-6.1609 0.26365,-1.83205 0.3589,-3.1809 0.2632,-4.1609 -0.0948,-0.98145 -0.3147,-1.62205 -0.689,-2.07275 -0.37475,-0.4492 -0.8794,-0.7207 -1.5554,-0.9043 -0.67555,-0.1792 -1.47315,-0.2788 -2.4055,-0.28025 -0.50735,0 -1.0657,0.043 -1.66235,0.14795 -0.59815,0.10595 -1.17485,0.23535 -1.7217,0.3911 -0.54735,0.1577 -1.03075,0.3135 -1.4558,0.4634 -0.4253,0.1494 -0.7412,0.23975 -0.96415,0.25585 -0.20455,0.0156 -0.38865,-0.0205 -0.5576,-0.1123 -0.1687,-0.0923 -0.35035,-0.19335 -0.54515,-0.3057 -0.37255,1.7964 -0.6604,3.68165 -0.8733,5.56055 -0.2136,1.8794 -0.343,3.8074 -0.42625,5.71535 0.0419,0.0982 0.0847,0.197 0.12865,0.2971 0.13575,-1.19555 0.3445,-2.50655 0.71045,-3.90745 0.36475,-1.3999 0.8762,-2.6836 1.5466,-3.7954 0.66895,-1.1162 1.4856,-1.99805 2.39775,-2.6553 0.9116,-0.6572 1.8579,-0.9487 2.74755,-1.0029 0.5737,-0.0332 1.0935,0.01 1.5581,0.12255 0.46435,0.1133 0.82395,0.31105 1.0869,0.6167 0.26415,0.3042 0.40675,0.7339 0.4441,1.34375 0.0371,0.6084 -0.0777,1.4331 -0.3225,2.552 -0.3533,1.62915 -0.8865,3.1924 -1.65285,4.45995 -0.7634,1.27175 -1.6079,2.4353 -2.49855,3.4341 -0.8894,1.00025 -1.76265,1.9133 -2.57515,2.71875 -0.81275,0.80395 -1.4441,1.6626 -1.93165,2.5559 -0.48855,0.89405 -0.79565,1.896 -1.01565,3.00805 -0.21435,1.11255 -0.29735,2.51295 -0.24585,4.261 0.0437,1.3076 0.16455,2.5227 0.4468,3.6279 0.28025,1.10255 0.6936,2.0369 1.25855,2.7759 0.562,0.74 1.2546,1.2639 2.03025,1.6023 0.7754,0.3386 1.5679,0.47315 2.3159,0.4763 0.74785,0.002 1.38725,-0.0512 1.9136,-0.14625 0.52635,-0.0969 1.0305,-0.1953 1.5166,-0.3005 0.50515,-0.10525 1.00855,-0.19995 1.51295,-0.2891 0.5039,-0.0891 1.0935,-0.11765 1.76195,-0.0906 -0.4956,-0.84375 -0.9004,-1.97825 -1.2146,-3.30175 -0.31545,-1.3247 -0.5232,-2.85085 -0.61815,-4.5061 -0.1619,-0.0107 -0.3225,-0.0217 -0.48195,-0.0327 z"
       style="fill:#231f20;fill-opacity:1;fill-rule:nonzero;stroke:none;stroke-width:0.5"
       id="path40" /><path
       d="m 280.5194,402.22155 c 0.67285,0.0327 1.1924,0.10645 1.56495,0.2344 0.3716,0.12745 0.6504,0.28805 0.8335,0.4946 0.1841,0.20655 0.28855,0.44875 0.3086,0.7344 0.019,0.28515 0.01,0.59375 -0.0342,0.92625 -0.8462,6.3909 -0.88425,20.76635 -0.11475,27.8772 0.0733,0.67675 0.11425,1.2024 0.1211,1.615 0.007,0.41235 -0.0752,0.72365 -0.23975,0.9636 -0.16745,0.2393 -0.43945,0.40235 -0.81885,0.5144 -0.3794,0.1116 -0.92675,0.1797 -1.64255,0.21245 0.0459,0.0893 0.0933,0.17235 0.1411,0.2495 0.52395,-0.0212 1.05715,-0.0339 1.59815,-0.0412 0.53905,-0.007 1.0869,-0.008 1.6367,-0.003 0.7388,0.006 1.4517,0.0242 2.13085,0.0523 0.6792,0.0276 1.3428,0.06 1.9883,0.0957 0.646,0.0354 1.27245,0.0618 1.8867,0.082 0.61185,0.0203 1.2427,0.0291 1.89995,0.0271 1.65865,-0.0132 3.3105,-0.1221 5.0659,-0.59525 1.7451,-0.47505 3.4795,-1.3225 5.04785,-2.78195 1.56835,-1.4534 2.88915,-3.48095 3.8257,-6.05565 0.937,-2.5696 1.4121,-5.59425 1.35645,-8.9236 -0.0625,-3.3728 -0.6382,-6.17995 -1.5879,-8.36595 -0.95265,-2.19365 -2.2051,-3.81715 -3.62695,-4.93775 -1.42335,-1.125 -2.94875,-1.7544 -4.48145,-2.10695 -1.53955,-0.3506 -3.0088,-0.46775 -4.46975,-0.48635 -1.11035,-0.0112 -2.07275,-0.0112 -2.8906,-0.004 -0.8179,0.008 -1.53515,0.0113 -2.1465,0.0113 -0.61375,-0.002 -1.1621,0 -1.646,0.002 -0.48585,0.001 -0.9492,0.003 -1.3916,0.006 -0.71775,0.004 -1.42235,0.004 -2.1089,-10e-4 -0.6865,-0.005 -1.37745,-0.0147 -2.06885,-0.0303 -0.0459,0.0727 -0.0918,0.15185 -0.1372,0.2363 m 5.91895,2.0371 c 0.79495,-0.79295 1.6294,-1.2119 2.5415,-1.43845 0.9131,-0.22365 1.8008,-0.31005 2.71925,-0.29785 3.31835,0.0781 6.13035,0.70555 8.3784,3.24805 2.20215,2.49635 3.79005,7.07715 3.7715,13.5427 -0.0112,2.77225 -0.4414,5.3472 -1.23435,7.59985 -0.793,2.2561 -1.87455,4.05985 -3.1387,5.4148 -1.2661,1.35745 -2.6655,2.21365 -4.11425,2.7488 -1.45605,0.5315 -2.86375,0.7107 -4.3218,0.73095 -0.7744,0.007 -1.49755,-0.0386 -2.1958,-0.14745 -0.7002,-0.1111 -1.40575,-0.2869 -2.14305,-0.5713 -0.13965,-1.04615 -0.2505,-2.583 -0.3125,-4.4292 -0.062,-1.8457 -0.104,-4.0227 -0.11965,-6.3596 -0.0507,-7.2124 0.005,-15.7312 0.16945,-20.0413 z"
       style="fill:#231f20;fill-opacity:1;fill-rule:nonzero;stroke:none;stroke-width:0.5"
       id="path42" /><path
       d="m 309.89735,414.71425 c 0.0532,0.88865 0.0737,1.68185 0.0722,2.3772 -0.002,0.6948 -0.0537,1.27735 -0.1533,1.7512 -0.1011,0.47195 -0.25735,0.86475 -0.48,1.1792 -0.22215,0.31495 -0.5337,0.5403 -0.9575,0.67405 -0.007,0.271 -0.0156,0.542 -0.0269,0.81205 1.2275,0.12375 2.22655,0.22265 2.9458,0.2905 0.13085,-5.2097 -0.10795,-10.54905 -0.71585,-15.2849 -0.0996,-0.77345 -0.16065,-1.3799 -0.16355,-1.83595 -0.003,-0.457 0.0576,-0.79395 0.1914,-1.02245 0.13185,-0.22755 0.33105,-0.3701 0.59425,-0.42335 0.2612,-0.0552 0.5908,-0.0825 0.98385,-0.0806 0,-0.2124 0,-0.4253 0,-0.6367 -0.6611,0.0273 -1.3208,0.0351 -1.9912,0.0269 -0.6714,-0.008 -1.3413,-0.0312 -2.01805,-0.064 -0.4453,-0.0215 -0.88575,-0.0527 -1.3286,-0.0937 -0.4419,-0.0415 -0.9009,-0.0913 -1.37845,-0.1489 0.0752,0.145 0.14895,0.2954 0.2217,0.44825 0.40135,0.0459 0.7505,0.10935 1.04785,0.19235 0.2964,0.081 0.56885,0.2339 0.8125,0.46635 0.24315,0.2319 0.46335,0.56295 0.6587,1.0083 0.1948,0.4448 0.38135,1.03365 0.5483,1.78415 0.5752,2.58325 0.9546,5.52465 1.13675,8.5801 m -0.3213,20.93895 c 0.4009,-0.4912 0.63625,-1.09475 0.74365,-1.7783 0.10595,-0.68605 0.0654,-1.2798 -0.0883,-1.7576 -0.1548,-0.4795 -0.3853,-0.68385 -0.7256,-0.6118 -0.34085,0.0708 -0.69335,0.39915 -1.0801,0.95435 -0.38575,0.5542 -0.68995,1.14745 -0.89405,1.76515 -0.2041,0.61645 -0.25585,1.10545 -0.1201,1.5173 0.1343,0.4099 0.4326,0.61795 0.875,0.62035 0.4409,0 0.88865,-0.218 1.28955,-0.70945 z"
       style="fill:#c6c5ca;fill-opacity:1;fill-rule:nonzero;stroke:none;stroke-width:0.5"
       id="path44" /><text
       xml:space="preserve"
       id="text947"
       style="font-style:normal;font-weight:normal;font-size:30px;line-height:1.25;font-family:sans-serif;white-space:pre;shape-inside:url(#rect949);fill:#000000;fill-opacity:1;stroke:none;"
       transform="matrix(0.5,0,0,0.5,143.4657,208.6532)" /></g></svg>
